<mxfile host="65bd71144e">
    <diagram id="S8rPYy8s09RGRuF7k9TE" name="Page-1">
        <mxGraphModel dx="2347" dy="1032" grid="1" gridSize="10" guides="1" tooltips="1" connect="1" arrows="1" fold="1" page="0" pageScale="1" pageWidth="850" pageHeight="1100" math="0" shadow="0">
            <root>
                <mxCell id="0"/>
                <mxCell id="1" parent="0"/>
                <mxCell id="213" style="edgeStyle=none;html=1;entryX=0.5;entryY=0;entryDx=0;entryDy=0;exitX=0;exitY=1;exitDx=0;exitDy=0;" parent="1" source="223" target="219" edge="1">
                    <mxGeometry relative="1" as="geometry">
                        <mxPoint x="290" y="270" as="targetPoint"/>
                        <mxPoint x="170" y="310" as="sourcePoint"/>
                    </mxGeometry>
                </mxCell>
                <mxCell id="214" style="edgeStyle=none;html=1;entryX=0.75;entryY=0;entryDx=0;entryDy=0;" parent="1" source="216" target="223" edge="1">
                    <mxGeometry relative="1" as="geometry">
                        <mxPoint x="395" y="300" as="targetPoint"/>
                        <Array as="points"/>
                    </mxGeometry>
                </mxCell>
                <mxCell id="215" style="edgeStyle=none;html=1;entryX=0.5;entryY=0;entryDx=0;entryDy=0;" parent="1" source="216" target="243" edge="1">
                    <mxGeometry relative="1" as="geometry">
                        <mxPoint x="1370" y="280" as="targetPoint"/>
                    </mxGeometry>
                </mxCell>
                <mxCell id="216" value="Stream Buddy" style="rounded=0;whiteSpace=wrap;html=1;" parent="1" vertex="1">
                    <mxGeometry x="410" y="30" width="130" height="80" as="geometry"/>
                </mxCell>
                <mxCell id="217" style="edgeStyle=none;html=1;entryX=0;entryY=1;entryDx=0;entryDy=0;exitX=0;exitY=1;exitDx=0;exitDy=0;" parent="1" source="216" target="216" edge="1">
                    <mxGeometry relative="1" as="geometry"/>
                </mxCell>
                <mxCell id="218" style="edgeStyle=none;html=1;entryX=0.5;entryY=0;entryDx=0;entryDy=0;" parent="1" source="219" target="226" edge="1">
                    <mxGeometry relative="1" as="geometry">
                        <mxPoint x="230" y="680" as="targetPoint"/>
                    </mxGeometry>
                </mxCell>
                <mxCell id="219" value="Provide a Genre" style="rounded=0;whiteSpace=wrap;html=1;" parent="1" vertex="1">
                    <mxGeometry x="-70" y="490" width="120" height="60" as="geometry"/>
                </mxCell>
                <mxCell id="220" style="edgeStyle=none;html=1;entryX=0.5;entryY=0;entryDx=0;entryDy=0;" parent="1" source="221" target="234" edge="1">
                    <mxGeometry relative="1" as="geometry"/>
                </mxCell>
                <mxCell id="221" value="Provide an Actor" style="rounded=0;whiteSpace=wrap;html=1;" parent="1" vertex="1">
                    <mxGeometry x="335" y="520" width="120" height="60" as="geometry"/>
                </mxCell>
                <mxCell id="222" style="edgeStyle=none;html=1;entryX=0.5;entryY=0;entryDx=0;entryDy=0;" parent="1" source="223" target="221" edge="1">
                    <mxGeometry relative="1" as="geometry"/>
                </mxCell>
                <mxCell id="223" value="Provide a streaming service" style="rounded=0;whiteSpace=wrap;html=1;" parent="1" vertex="1">
                    <mxGeometry x="170" y="280" width="120" height="60" as="geometry"/>
                </mxCell>
                <mxCell id="224" style="edgeStyle=none;html=1;entryX=0.5;entryY=0;entryDx=0;entryDy=0;fillColor=#008a00;strokeColor=#005700;" parent="1" source="226" target="228" edge="1">
                    <mxGeometry relative="1" as="geometry">
                        <mxPoint x="70" y="880" as="targetPoint"/>
                    </mxGeometry>
                </mxCell>
                <mxCell id="225" style="edgeStyle=none;html=1;exitX=0.75;exitY=1;exitDx=0;exitDy=0;entryX=0.5;entryY=0;entryDx=0;entryDy=0;fillColor=#a20025;strokeColor=#6F0000;" parent="1" source="226" target="230" edge="1">
                    <mxGeometry relative="1" as="geometry"/>
                </mxCell>
                <mxCell id="226" value="Do you want to search by year" style="rounded=0;whiteSpace=wrap;html=1;" parent="1" vertex="1">
                    <mxGeometry x="-200" y="650" width="120" height="60" as="geometry"/>
                </mxCell>
                <mxCell id="227" value="&lt;br&gt;" style="text;html=1;align=center;verticalAlign=middle;resizable=0;points=[];autosize=1;strokeColor=none;fillColor=none;" parent="1" vertex="1">
                    <mxGeometry x="-355" y="605" width="20" height="30" as="geometry"/>
                </mxCell>
                <mxCell id="228" value="Return Genre Movies By Year" style="rounded=0;whiteSpace=wrap;html=1;" parent="1" vertex="1">
                    <mxGeometry x="-350" y="920" width="120" height="60" as="geometry"/>
                </mxCell>
                <mxCell id="229" value="&lt;span style=&quot;&quot;&gt;Make call to&amp;nbsp;&lt;/span&gt;&lt;br style=&quot;&quot;&gt;&lt;span style=&quot;&quot;&gt;https://api.themoviedb.org/3/genre/movie/list?language=en&lt;/span&gt;&lt;br style=&quot;&quot;&gt;&lt;br style=&quot;&quot;&gt;&lt;span style=&quot;&quot;&gt;To provide an object of genre. Set object {name: id}&lt;br&gt;&lt;/span&gt;&lt;br&gt;This value is passed into with_genres&lt;br&gt;User types in Comedy and Id 35 is returned&lt;br&gt;&lt;br&gt;https://api.themoviedb.org/3/discover/movie?include_adult=false&amp;amp;&lt;br&gt;include_video=false&amp;amp;language=en-US&amp;amp;page=1&amp;amp;sort_by=vote_count.desc&lt;br&gt;&amp;amp;watch_region=US&amp;amp;with_genres=35&lt;br&gt;&amp;amp;with_watch_monetization_types=flatrate&amp;amp;with_watch_providers=8" style="text;html=1;align=center;verticalAlign=middle;resizable=0;points=[];autosize=1;strokeColor=none;fillColor=none;" parent="1" vertex="1">
                    <mxGeometry x="-630" y="430" width="420" height="190" as="geometry"/>
                </mxCell>
                <mxCell id="230" value="Return all movies in that genre" style="rounded=0;whiteSpace=wrap;html=1;" parent="1" vertex="1">
                    <mxGeometry x="-170" y="920" width="120" height="60" as="geometry"/>
                </mxCell>
                <mxCell id="231" value="Make call to&lt;br&gt;https://api.themoviedb.org/3/discover/movie?include_adult=false&lt;br&gt;&amp;amp;include_video=false&amp;amp;language=en-US&amp;amp;page=1&amp;amp;primary_release_year=2022&lt;br&gt;&amp;amp;sort_by=vote_count.desc&amp;amp;watch_region=US&amp;amp;with_genres=35&lt;br&gt;&amp;amp;with_watch_monetization_types=flatrate&amp;amp;with_watch_providers=8" style="text;html=1;align=center;verticalAlign=middle;resizable=0;points=[];autosize=1;strokeColor=none;fillColor=none;" parent="1" vertex="1">
                    <mxGeometry x="-660" y="710" width="440" height="90" as="geometry"/>
                </mxCell>
                <mxCell id="232" value="Make call to&lt;br&gt;&lt;br&gt;https://api.themoviedb.org/3/search/person?&lt;br&gt;query=Robert%20DeNiro&amp;amp;include_adult=false&lt;br&gt;&amp;amp;language=en-US&amp;amp;page=1&lt;br&gt;&lt;br&gt;Get &quot;Id&quot; which is passed into with_cast&lt;br&gt;&lt;br&gt;https://api.themoviedb.org/3/discover/movie?include_adult=false&lt;br&gt;&amp;amp;include_video=false&amp;amp;language=en-US&amp;amp;page=1&amp;amp;sort_by=vote_count.desc&lt;br&gt;&amp;amp;watch_region=US&amp;amp;with_cast=380&lt;br&gt;&amp;amp;with_watch_monetization_types=flatrate&lt;br&gt;&amp;amp;with_watch_providers=8" style="text;html=1;align=center;verticalAlign=middle;resizable=0;points=[];autosize=1;strokeColor=none;fillColor=none;" parent="1" vertex="1">
                    <mxGeometry y="530" width="430" height="200" as="geometry"/>
                </mxCell>
                <mxCell id="233" style="edgeStyle=none;html=1;fillColor=#60a917;strokeColor=#2D7600;" parent="1" source="234" edge="1">
                    <mxGeometry relative="1" as="geometry">
                        <mxPoint x="270.00000000000045" y="900" as="targetPoint"/>
                        <Array as="points">
                            <mxPoint x="330" y="820"/>
                        </Array>
                    </mxGeometry>
                </mxCell>
                <mxCell id="234" value="Do you want to search by genre?" style="rounded=0;whiteSpace=wrap;html=1;" parent="1" vertex="1">
                    <mxGeometry x="335" y="700" width="120" height="60" as="geometry"/>
                </mxCell>
                <mxCell id="235" value="Return all movies with actor in that Genre" style="rounded=0;whiteSpace=wrap;html=1;" parent="1" vertex="1">
                    <mxGeometry x="200" y="910" width="120" height="60" as="geometry"/>
                </mxCell>
                <mxCell id="236" value="Make same call as&lt;br&gt;&amp;nbsp;search by Genre and append to api call above" style="text;html=1;align=center;verticalAlign=middle;resizable=0;points=[];autosize=1;strokeColor=none;fillColor=none;" parent="1" vertex="1">
                    <mxGeometry x="65" y="780" width="270" height="40" as="geometry"/>
                </mxCell>
                <mxCell id="237" style="edgeStyle=none;html=1;fillColor=#a20025;strokeColor=#6F0000;entryX=0.5;entryY=0;entryDx=0;entryDy=0;" parent="1" target="238" edge="1">
                    <mxGeometry relative="1" as="geometry">
                        <mxPoint x="429.99999999999955" y="760" as="sourcePoint"/>
                        <mxPoint x="430" y="900" as="targetPoint"/>
                    </mxGeometry>
                </mxCell>
                <mxCell id="238" value="Return all movies for the actor" style="rounded=0;whiteSpace=wrap;html=1;" parent="1" vertex="1">
                    <mxGeometry x="370" y="910" width="120" height="60" as="geometry"/>
                </mxCell>
                <mxCell id="239" value="Make call to&amp;nbsp;&lt;br&gt;&lt;br&gt;https://api.themoviedb.org/3/watch/providers/movie?&lt;br&gt;language=en-US&amp;amp;watch_region=US&lt;br&gt;&lt;br&gt;Return a new object&amp;nbsp;&lt;br&gt;&quot;Name: value&quot; : &quot;Netflix:8&quot;&lt;br&gt;{&lt;br&gt;&quot;Netflix&quot;:8,&lt;br&gt;&quot;PrimeVideo}: 9&lt;br&gt;}&lt;br&gt;&lt;br&gt;User types in Netflix and Id 8 is returned&lt;br&gt;&lt;br&gt;This call is made&lt;br&gt;&lt;div&gt;&quot;https://api.themoviedb.org/3/discover/movie?include_adult=false&amp;amp;&lt;br&gt;include_video=false&amp;amp;language=en-US&amp;amp;page=1&lt;br&gt;&amp;amp;sort_by=vote_count.desc&amp;amp;watch_region=US&lt;br&gt;&amp;amp;with_watch_monetization_types=flatrate&amp;amp;with_watch_providers=8&quot;&lt;/div&gt;&lt;div&gt;&lt;br&gt;&lt;/div&gt;" style="text;html=1;align=center;verticalAlign=middle;resizable=0;points=[];autosize=1;strokeColor=none;fillColor=none;" parent="1" vertex="1">
                    <mxGeometry x="-260" y="65" width="390" height="300" as="geometry"/>
                </mxCell>
                <mxCell id="240" style="edgeStyle=none;html=1;entryX=0.5;entryY=0;entryDx=0;entryDy=0;" parent="1" source="243" target="245" edge="1">
                    <mxGeometry relative="1" as="geometry"/>
                </mxCell>
                <mxCell id="241" style="edgeStyle=none;html=1;" parent="1" source="243" edge="1">
                    <mxGeometry relative="1" as="geometry">
                        <mxPoint x="780" y="410" as="targetPoint"/>
                    </mxGeometry>
                </mxCell>
                <mxCell id="242" style="edgeStyle=none;html=1;exitX=1;exitY=0.5;exitDx=0;exitDy=0;entryX=0.5;entryY=0;entryDx=0;entryDy=0;" parent="1" source="243" target="254" edge="1">
                    <mxGeometry relative="1" as="geometry">
                        <mxPoint x="980" y="410" as="targetPoint"/>
                    </mxGeometry>
                </mxCell>
                <mxCell id="243" value="See Profile By User" style="rounded=0;whiteSpace=wrap;html=1;" parent="1" vertex="1">
                    <mxGeometry x="650" y="280" width="120" height="60" as="geometry"/>
                </mxCell>
                <mxCell id="244" style="edgeStyle=none;html=1;" parent="1" source="245" target="246" edge="1">
                    <mxGeometry relative="1" as="geometry">
                        <mxPoint x="600" y="570" as="targetPoint"/>
                    </mxGeometry>
                </mxCell>
                <mxCell id="245" value="See all favorites" style="rounded=0;whiteSpace=wrap;html=1;" parent="1" vertex="1">
                    <mxGeometry x="540" y="410" width="120" height="60" as="geometry"/>
                </mxCell>
                <mxCell id="246" value="Return list of favorites" style="rounded=0;whiteSpace=wrap;html=1;" parent="1" vertex="1">
                    <mxGeometry x="540" y="540" width="120" height="60" as="geometry"/>
                </mxCell>
                <mxCell id="247" style="edgeStyle=none;html=1;exitX=0.75;exitY=0;exitDx=0;exitDy=0;" parent="1" source="249" edge="1">
                    <mxGeometry relative="1" as="geometry">
                        <mxPoint x="820" y="410" as="targetPoint"/>
                    </mxGeometry>
                </mxCell>
                <mxCell id="248" style="edgeStyle=none;html=1;" parent="1" source="249" target="250" edge="1">
                    <mxGeometry relative="1" as="geometry">
                        <mxPoint x="800" y="550" as="targetPoint"/>
                    </mxGeometry>
                </mxCell>
                <mxCell id="249" value="CRUD a User" style="rounded=0;whiteSpace=wrap;html=1;" parent="1" vertex="1">
                    <mxGeometry x="740" y="410" width="120" height="60" as="geometry"/>
                </mxCell>
                <mxCell id="250" value="Return CRUD work done in DB" style="rounded=0;whiteSpace=wrap;html=1;" parent="1" vertex="1">
                    <mxGeometry x="740" y="540" width="120" height="60" as="geometry"/>
                </mxCell>
                <mxCell id="251" style="edgeStyle=none;html=1;" parent="1" source="254" edge="1">
                    <mxGeometry relative="1" as="geometry">
                        <mxPoint x="970" y="540" as="targetPoint"/>
                    </mxGeometry>
                </mxCell>
                <mxCell id="252" style="edgeStyle=none;html=1;" parent="1" source="254" edge="1">
                    <mxGeometry relative="1" as="geometry">
                        <mxPoint x="1140" y="550" as="targetPoint"/>
                    </mxGeometry>
                </mxCell>
                <mxCell id="253" style="edgeStyle=none;html=1;" parent="1" source="254" edge="1">
                    <mxGeometry relative="1" as="geometry">
                        <mxPoint x="1290" y="540" as="targetPoint"/>
                    </mxGeometry>
                </mxCell>
                <mxCell id="254" value="CRUD Favorite" style="rounded=0;whiteSpace=wrap;html=1;" parent="1" vertex="1">
                    <mxGeometry x="1010" y="410" width="120" height="60" as="geometry"/>
                </mxCell>
                <mxCell id="255" value="" style="edgeStyle=none;html=1;" parent="1" source="256" target="257" edge="1">
                    <mxGeometry relative="1" as="geometry"/>
                </mxCell>
                <mxCell id="256" value="Add favorite Movie" style="rounded=0;whiteSpace=wrap;html=1;" parent="1" vertex="1">
                    <mxGeometry x="910" y="545" width="120" height="60" as="geometry"/>
                </mxCell>
                <mxCell id="257" value="Create record in DB using Index of returned list, user, rating" style="whiteSpace=wrap;html=1;rounded=0;" parent="1" vertex="1">
                    <mxGeometry x="910" y="780" width="120" height="60" as="geometry"/>
                </mxCell>
                <UserObject label="Search by Name&lt;br&gt;&lt;br&gt;https://api.themoviedb.org/3/search/multi?query=Heat&lt;br&gt;&amp;amp;include_adult=false&amp;amp;language=en-US&amp;amp;page=1&lt;br&gt;&lt;br&gt;Returns list, use list index to select the favorite movie" link="https://api.themoviedb.org/3/search/multi?query=Heat&amp;include_adult=false&amp;language=en-US&amp;page=1" id="258">
                    <mxCell style="text;whiteSpace=wrap;html=1;" parent="1" vertex="1">
                        <mxGeometry x="825" y="850" width="290" height="100" as="geometry"/>
                    </mxCell>
                </UserObject>
                <mxCell id="259" style="edgeStyle=none;html=1;" parent="1" source="260" target="261" edge="1">
                    <mxGeometry relative="1" as="geometry">
                        <mxPoint x="1130" y="690" as="targetPoint"/>
                    </mxGeometry>
                </mxCell>
                <mxCell id="260" value="Delete favorite Movie" style="rounded=0;whiteSpace=wrap;html=1;" parent="1" vertex="1">
                    <mxGeometry x="1070" y="545" width="120" height="60" as="geometry"/>
                </mxCell>
                <mxCell id="261" value="Delete from DB instacne by where clause with Name and user" style="rounded=0;whiteSpace=wrap;html=1;" parent="1" vertex="1">
                    <mxGeometry x="1070" y="660" width="120" height="60" as="geometry"/>
                </mxCell>
                <mxCell id="262" style="edgeStyle=none;html=1;entryX=0.5;entryY=0;entryDx=0;entryDy=0;" parent="1" source="263" target="264" edge="1">
                    <mxGeometry relative="1" as="geometry"/>
                </mxCell>
                <mxCell id="263" value="Update Rating" style="rounded=0;whiteSpace=wrap;html=1;" parent="1" vertex="1">
                    <mxGeometry x="1230" y="545" width="120" height="60" as="geometry"/>
                </mxCell>
                <mxCell id="264" value="Update DB using&amp;nbsp;&lt;br&gt;Movie Name&lt;br&gt;User&lt;br&gt;&lt;br&gt;Change Rating" style="rounded=0;whiteSpace=wrap;html=1;" parent="1" vertex="1">
                    <mxGeometry x="1230" y="710" width="120" height="90" as="geometry"/>
                </mxCell>
                <mxCell id="265" value="" style="shape=table;startSize=0;container=1;collapsible=0;childLayout=tableLayout;" parent="1" vertex="1">
                    <mxGeometry x="1139" y="240" width="328" height="160" as="geometry"/>
                </mxCell>
                <mxCell id="266" value="" style="shape=tableRow;horizontal=0;startSize=0;swimlaneHead=0;swimlaneBody=0;top=0;left=0;bottom=0;right=0;collapsible=0;dropTarget=0;fillColor=none;points=[[0,0.5],[1,0.5]];portConstraint=eastwest;" parent="265" vertex="1">
                    <mxGeometry width="328" height="40" as="geometry"/>
                </mxCell>
                <mxCell id="267" value="FavoriteId" style="shape=partialRectangle;html=1;whiteSpace=wrap;connectable=0;overflow=hidden;fillColor=none;top=0;left=0;bottom=0;right=0;pointerEvents=1;" parent="266" vertex="1">
                    <mxGeometry width="82" height="40" as="geometry">
                        <mxRectangle width="82" height="40" as="alternateBounds"/>
                    </mxGeometry>
                </mxCell>
                <mxCell id="268" value="User" style="shape=partialRectangle;html=1;whiteSpace=wrap;connectable=0;overflow=hidden;fillColor=none;top=0;left=0;bottom=0;right=0;pointerEvents=1;" parent="266" vertex="1">
                    <mxGeometry x="82" width="82" height="40" as="geometry">
                        <mxRectangle width="82" height="40" as="alternateBounds"/>
                    </mxGeometry>
                </mxCell>
                <mxCell id="269" value="Movie Name" style="shape=partialRectangle;html=1;whiteSpace=wrap;connectable=0;overflow=hidden;fillColor=none;top=0;left=0;bottom=0;right=0;pointerEvents=1;" parent="266" vertex="1">
                    <mxGeometry x="164" width="82" height="40" as="geometry">
                        <mxRectangle width="82" height="40" as="alternateBounds"/>
                    </mxGeometry>
                </mxCell>
                <mxCell id="270" value="Rating" style="shape=partialRectangle;html=1;whiteSpace=wrap;connectable=0;overflow=hidden;fillColor=none;top=0;left=0;bottom=0;right=0;pointerEvents=1;" parent="266" vertex="1">
                    <mxGeometry x="246" width="82" height="40" as="geometry">
                        <mxRectangle width="82" height="40" as="alternateBounds"/>
                    </mxGeometry>
                </mxCell>
                <mxCell id="271" value="" style="shape=tableRow;horizontal=0;startSize=0;swimlaneHead=0;swimlaneBody=0;top=0;left=0;bottom=0;right=0;collapsible=0;dropTarget=0;fillColor=none;points=[[0,0.5],[1,0.5]];portConstraint=eastwest;" parent="265" vertex="1">
                    <mxGeometry y="40" width="328" height="40" as="geometry"/>
                </mxCell>
                <mxCell id="272" value="1" style="shape=partialRectangle;html=1;whiteSpace=wrap;connectable=0;overflow=hidden;fillColor=none;top=0;left=0;bottom=0;right=0;pointerEvents=1;" parent="271" vertex="1">
                    <mxGeometry width="82" height="40" as="geometry">
                        <mxRectangle width="82" height="40" as="alternateBounds"/>
                    </mxGeometry>
                </mxCell>
                <mxCell id="273" value="UserId" style="shape=partialRectangle;html=1;whiteSpace=wrap;connectable=0;overflow=hidden;fillColor=none;top=0;left=0;bottom=0;right=0;pointerEvents=1;" parent="271" vertex="1">
                    <mxGeometry x="82" width="82" height="40" as="geometry">
                        <mxRectangle width="82" height="40" as="alternateBounds"/>
                    </mxGeometry>
                </mxCell>
                <mxCell id="274" value="Heat" style="shape=partialRectangle;html=1;whiteSpace=wrap;connectable=0;overflow=hidden;fillColor=none;top=0;left=0;bottom=0;right=0;pointerEvents=1;" parent="271" vertex="1">
                    <mxGeometry x="164" width="82" height="40" as="geometry">
                        <mxRectangle width="82" height="40" as="alternateBounds"/>
                    </mxGeometry>
                </mxCell>
                <mxCell id="275" value="5" style="shape=partialRectangle;html=1;whiteSpace=wrap;connectable=0;overflow=hidden;fillColor=none;top=0;left=0;bottom=0;right=0;pointerEvents=1;" parent="271" vertex="1">
                    <mxGeometry x="246" width="82" height="40" as="geometry">
                        <mxRectangle width="82" height="40" as="alternateBounds"/>
                    </mxGeometry>
                </mxCell>
                <mxCell id="276" value="" style="shape=tableRow;horizontal=0;startSize=0;swimlaneHead=0;swimlaneBody=0;top=0;left=0;bottom=0;right=0;collapsible=0;dropTarget=0;fillColor=none;points=[[0,0.5],[1,0.5]];portConstraint=eastwest;" parent="265" vertex="1">
                    <mxGeometry y="80" width="328" height="40" as="geometry"/>
                </mxCell>
                <mxCell id="277" value="" style="shape=partialRectangle;html=1;whiteSpace=wrap;connectable=0;overflow=hidden;fillColor=none;top=0;left=0;bottom=0;right=0;pointerEvents=1;" parent="276" vertex="1">
                    <mxGeometry width="82" height="40" as="geometry">
                        <mxRectangle width="82" height="40" as="alternateBounds"/>
                    </mxGeometry>
                </mxCell>
                <mxCell id="278" value="" style="shape=partialRectangle;html=1;whiteSpace=wrap;connectable=0;overflow=hidden;fillColor=none;top=0;left=0;bottom=0;right=0;pointerEvents=1;" parent="276" vertex="1">
                    <mxGeometry x="82" width="82" height="40" as="geometry">
                        <mxRectangle width="82" height="40" as="alternateBounds"/>
                    </mxGeometry>
                </mxCell>
                <mxCell id="279" value="" style="shape=partialRectangle;html=1;whiteSpace=wrap;connectable=0;overflow=hidden;fillColor=none;top=0;left=0;bottom=0;right=0;pointerEvents=1;" parent="276" vertex="1">
                    <mxGeometry x="164" width="82" height="40" as="geometry">
                        <mxRectangle width="82" height="40" as="alternateBounds"/>
                    </mxGeometry>
                </mxCell>
                <mxCell id="280" value="" style="shape=partialRectangle;html=1;whiteSpace=wrap;connectable=0;overflow=hidden;fillColor=none;top=0;left=0;bottom=0;right=0;pointerEvents=1;" parent="276" vertex="1">
                    <mxGeometry x="246" width="82" height="40" as="geometry">
                        <mxRectangle width="82" height="40" as="alternateBounds"/>
                    </mxGeometry>
                </mxCell>
                <mxCell id="281" style="shape=tableRow;horizontal=0;startSize=0;swimlaneHead=0;swimlaneBody=0;top=0;left=0;bottom=0;right=0;collapsible=0;dropTarget=0;fillColor=none;points=[[0,0.5],[1,0.5]];portConstraint=eastwest;" parent="265" vertex="1">
                    <mxGeometry y="120" width="328" height="40" as="geometry"/>
                </mxCell>
                <mxCell id="282" style="shape=partialRectangle;html=1;whiteSpace=wrap;connectable=0;overflow=hidden;fillColor=none;top=0;left=0;bottom=0;right=0;pointerEvents=1;" parent="281" vertex="1">
                    <mxGeometry width="82" height="40" as="geometry">
                        <mxRectangle width="82" height="40" as="alternateBounds"/>
                    </mxGeometry>
                </mxCell>
                <mxCell id="283" style="shape=partialRectangle;html=1;whiteSpace=wrap;connectable=0;overflow=hidden;fillColor=none;top=0;left=0;bottom=0;right=0;pointerEvents=1;" parent="281" vertex="1">
                    <mxGeometry x="82" width="82" height="40" as="geometry">
                        <mxRectangle width="82" height="40" as="alternateBounds"/>
                    </mxGeometry>
                </mxCell>
                <mxCell id="284" style="shape=partialRectangle;html=1;whiteSpace=wrap;connectable=0;overflow=hidden;fillColor=none;top=0;left=0;bottom=0;right=0;pointerEvents=1;" parent="281" vertex="1">
                    <mxGeometry x="164" width="82" height="40" as="geometry">
                        <mxRectangle width="82" height="40" as="alternateBounds"/>
                    </mxGeometry>
                </mxCell>
                <mxCell id="285" style="shape=partialRectangle;html=1;whiteSpace=wrap;connectable=0;overflow=hidden;fillColor=none;top=0;left=0;bottom=0;right=0;pointerEvents=1;" parent="281" vertex="1">
                    <mxGeometry x="246" width="82" height="40" as="geometry">
                        <mxRectangle width="82" height="40" as="alternateBounds"/>
                    </mxGeometry>
                </mxCell>
                <mxCell id="286" value="Favorites Table" style="text;html=1;align=center;verticalAlign=middle;resizable=0;points=[];autosize=1;strokeColor=none;fillColor=none;" parent="1" vertex="1">
                    <mxGeometry x="1253" y="200" width="100" height="30" as="geometry"/>
                </mxCell>
                <mxCell id="287" value="Users" style="text;html=1;align=center;verticalAlign=middle;resizable=0;points=[];autosize=1;strokeColor=none;fillColor=none;" parent="1" vertex="1">
                    <mxGeometry x="1230" y="-30" width="50" height="30" as="geometry"/>
                </mxCell>
                <mxCell id="288" value="" style="shape=table;startSize=0;container=1;collapsible=0;childLayout=tableLayout;" parent="1" vertex="1">
                    <mxGeometry x="1139" y="10" width="246" height="160" as="geometry"/>
                </mxCell>
                <mxCell id="289" value="" style="shape=tableRow;horizontal=0;startSize=0;swimlaneHead=0;swimlaneBody=0;top=0;left=0;bottom=0;right=0;collapsible=0;dropTarget=0;fillColor=none;points=[[0,0.5],[1,0.5]];portConstraint=eastwest;" parent="288" vertex="1">
                    <mxGeometry width="246" height="40" as="geometry"/>
                </mxCell>
                <mxCell id="290" value="UserId" style="shape=partialRectangle;html=1;whiteSpace=wrap;connectable=0;overflow=hidden;fillColor=none;top=0;left=0;bottom=0;right=0;pointerEvents=1;" parent="289" vertex="1">
                    <mxGeometry width="82" height="40" as="geometry">
                        <mxRectangle width="82" height="40" as="alternateBounds"/>
                    </mxGeometry>
                </mxCell>
                <mxCell id="291" value="Name" style="shape=partialRectangle;html=1;whiteSpace=wrap;connectable=0;overflow=hidden;fillColor=none;top=0;left=0;bottom=0;right=0;pointerEvents=1;" parent="289" vertex="1">
                    <mxGeometry x="82" width="82" height="40" as="geometry">
                        <mxRectangle width="82" height="40" as="alternateBounds"/>
                    </mxGeometry>
                </mxCell>
                <mxCell id="292" value="Age" style="shape=partialRectangle;html=1;whiteSpace=wrap;connectable=0;overflow=hidden;fillColor=none;top=0;left=0;bottom=0;right=0;pointerEvents=1;" parent="289" vertex="1">
                    <mxGeometry x="164" width="82" height="40" as="geometry">
                        <mxRectangle width="82" height="40" as="alternateBounds"/>
                    </mxGeometry>
                </mxCell>
                <mxCell id="293" value="" style="shape=tableRow;horizontal=0;startSize=0;swimlaneHead=0;swimlaneBody=0;top=0;left=0;bottom=0;right=0;collapsible=0;dropTarget=0;fillColor=none;points=[[0,0.5],[1,0.5]];portConstraint=eastwest;" parent="288" vertex="1">
                    <mxGeometry y="40" width="246" height="40" as="geometry"/>
                </mxCell>
                <mxCell id="294" value="1" style="shape=partialRectangle;html=1;whiteSpace=wrap;connectable=0;overflow=hidden;fillColor=none;top=0;left=0;bottom=0;right=0;pointerEvents=1;" parent="293" vertex="1">
                    <mxGeometry width="82" height="40" as="geometry">
                        <mxRectangle width="82" height="40" as="alternateBounds"/>
                    </mxGeometry>
                </mxCell>
                <mxCell id="295" value="Nick" style="shape=partialRectangle;html=1;whiteSpace=wrap;connectable=0;overflow=hidden;fillColor=none;top=0;left=0;bottom=0;right=0;pointerEvents=1;" parent="293" vertex="1">
                    <mxGeometry x="82" width="82" height="40" as="geometry">
                        <mxRectangle width="82" height="40" as="alternateBounds"/>
                    </mxGeometry>
                </mxCell>
                <mxCell id="296" value="29" style="shape=partialRectangle;html=1;whiteSpace=wrap;connectable=0;overflow=hidden;fillColor=none;top=0;left=0;bottom=0;right=0;pointerEvents=1;" parent="293" vertex="1">
                    <mxGeometry x="164" width="82" height="40" as="geometry">
                        <mxRectangle width="82" height="40" as="alternateBounds"/>
                    </mxGeometry>
                </mxCell>
                <mxCell id="297" value="" style="shape=tableRow;horizontal=0;startSize=0;swimlaneHead=0;swimlaneBody=0;top=0;left=0;bottom=0;right=0;collapsible=0;dropTarget=0;fillColor=none;points=[[0,0.5],[1,0.5]];portConstraint=eastwest;" parent="288" vertex="1">
                    <mxGeometry y="80" width="246" height="40" as="geometry"/>
                </mxCell>
                <mxCell id="298" value="" style="shape=partialRectangle;html=1;whiteSpace=wrap;connectable=0;overflow=hidden;fillColor=none;top=0;left=0;bottom=0;right=0;pointerEvents=1;" parent="297" vertex="1">
                    <mxGeometry width="82" height="40" as="geometry">
                        <mxRectangle width="82" height="40" as="alternateBounds"/>
                    </mxGeometry>
                </mxCell>
                <mxCell id="299" value="" style="shape=partialRectangle;html=1;whiteSpace=wrap;connectable=0;overflow=hidden;fillColor=none;top=0;left=0;bottom=0;right=0;pointerEvents=1;" parent="297" vertex="1">
                    <mxGeometry x="82" width="82" height="40" as="geometry">
                        <mxRectangle width="82" height="40" as="alternateBounds"/>
                    </mxGeometry>
                </mxCell>
                <mxCell id="300" value="" style="shape=partialRectangle;html=1;whiteSpace=wrap;connectable=0;overflow=hidden;fillColor=none;top=0;left=0;bottom=0;right=0;pointerEvents=1;" parent="297" vertex="1">
                    <mxGeometry x="164" width="82" height="40" as="geometry">
                        <mxRectangle width="82" height="40" as="alternateBounds"/>
                    </mxGeometry>
                </mxCell>
                <mxCell id="301" style="shape=tableRow;horizontal=0;startSize=0;swimlaneHead=0;swimlaneBody=0;top=0;left=0;bottom=0;right=0;collapsible=0;dropTarget=0;fillColor=none;points=[[0,0.5],[1,0.5]];portConstraint=eastwest;" parent="288" vertex="1">
                    <mxGeometry y="120" width="246" height="40" as="geometry"/>
                </mxCell>
                <mxCell id="302" style="shape=partialRectangle;html=1;whiteSpace=wrap;connectable=0;overflow=hidden;fillColor=none;top=0;left=0;bottom=0;right=0;pointerEvents=1;" parent="301" vertex="1">
                    <mxGeometry width="82" height="40" as="geometry">
                        <mxRectangle width="82" height="40" as="alternateBounds"/>
                    </mxGeometry>
                </mxCell>
                <mxCell id="303" style="shape=partialRectangle;html=1;whiteSpace=wrap;connectable=0;overflow=hidden;fillColor=none;top=0;left=0;bottom=0;right=0;pointerEvents=1;" parent="301" vertex="1">
                    <mxGeometry x="82" width="82" height="40" as="geometry">
                        <mxRectangle width="82" height="40" as="alternateBounds"/>
                    </mxGeometry>
                </mxCell>
                <mxCell id="304" style="shape=partialRectangle;html=1;whiteSpace=wrap;connectable=0;overflow=hidden;fillColor=none;top=0;left=0;bottom=0;right=0;pointerEvents=1;" parent="301" vertex="1">
                    <mxGeometry x="164" width="82" height="40" as="geometry">
                        <mxRectangle width="82" height="40" as="alternateBounds"/>
                    </mxGeometry>
                </mxCell>
                <mxCell id="305" value="Prompt to enter username" style="text;html=1;align=center;verticalAlign=middle;resizable=0;points=[];autosize=1;strokeColor=none;fillColor=none;" parent="1" vertex="1">
                    <mxGeometry x="730" y="230" width="160" height="30" as="geometry"/>
                </mxCell>
                <mxCell id="308" value="" style="edgeStyle=none;html=1;" edge="1" parent="1" source="306" target="307">
                    <mxGeometry relative="1" as="geometry"/>
                </mxCell>
                <mxCell id="314" style="edgeStyle=none;html=1;" edge="1" parent="1" source="306">
                    <mxGeometry relative="1" as="geometry">
                        <mxPoint x="-400" y="1560" as="targetPoint"/>
                    </mxGeometry>
                </mxCell>
                <mxCell id="306" value="Input: UserName:GabeW" style="rounded=0;whiteSpace=wrap;html=1;" vertex="1" parent="1">
                    <mxGeometry x="-350" y="1390" width="120" height="60" as="geometry"/>
                </mxCell>
                <mxCell id="307" value="Input: See Favorites?" style="whiteSpace=wrap;html=1;rounded=0;" vertex="1" parent="1">
                    <mxGeometry x="-300" y="1560" width="120" height="60" as="geometry"/>
                </mxCell>
                <mxCell id="309" value="User table with ID, first, last and UserName&lt;br&gt;ID 1&lt;br&gt;Username GabeW" style="ellipse;whiteSpace=wrap;html=1;" vertex="1" parent="1">
                    <mxGeometry x="-195" y="1430" width="205" height="110" as="geometry"/>
                </mxCell>
                <mxCell id="310" value="&lt;pre style=&quot;margin: 0px 0px calc(1.5em); padding: var(--su12); border: 0px; font-style: normal; font-variant-ligatures: normal; font-variant-caps: normal; font-variant-numeric: inherit; font-variant-east-asian: inherit; font-variant-alternates: inherit; font-variant-position: inherit; font-weight: 400; font-stretch: inherit; line-height: var(--lh-md); font-family: var(--ff-mono); font-optical-sizing: inherit; font-kerning: inherit; font-feature-settings: inherit; font-variation-settings: inherit; font-size: var(--fs-body1); vertical-align: baseline; box-sizing: inherit; width: auto; max-height: 600px; overflow: auto; background-color: var(--highlight-bg); border-radius: var(--br-md); overflow-wrap: normal; --theme-base-primary-color-h: 27; --theme-base-primary-color-s: 89%; --theme-base-primary-color-l: 48%; --theme-primary-custom-100: hsl(var(--theme-base-primary-color-h), var(--theme-base-primary-color-s), calc(var(--theme-base-primary-color-l) + ((100% - var(--theme-base-primary-color-l)) * .9))); --theme-primary-custom-200: hsl(var(--theme-base-primary-color-h), var(--theme-base-primary-color-s), calc(var(--theme-base-primary-color-l) + ((100% - var(--theme-base-primary-color-l)) * .75))); --theme-primary-custom-300: hsl(var(--theme-base-primary-color-h), var(--theme-base-primary-color-s), calc(var(--theme-base-primary-color-l) + ((100% - var(--theme-base-primary-color-l)) * .5))); --theme-primary-custom-400: hsl(var(--theme-base-primary-color-h), var(--theme-base-primary-color-s), var(--theme-base-primary-color-l)); --theme-primary-custom-500: hsl(var(--theme-base-primary-color-h), var(--theme-base-primary-color-s), calc(var(--theme-base-primary-color-l) + (var(--theme-base-primary-color-l) * -.3))); --theme-primary-custom-600: hsl(var(--theme-base-primary-color-h), var(--theme-base-primary-color-s), calc(var(--theme-base-primary-color-l) + (var(--theme-base-primary-color-l) * -.6))); --theme-primary-custom: var(--theme-primary-custom-400); --theme-button-color: initial; --theme-button-hover-color: initial; --theme-button-hover-background-color: initial; --theme-button-active-background-color: initial; --theme-button-selected-color: initial; --theme-button-selected-background-color: initial; --theme-button-outlined-border-color: initial; --theme-button-outlined-selected-border-color: initial; --theme-button-primary-color: initial; --theme-button-primary-active-color: initial; --theme-button-primary-hover-color: initial; --theme-button-primary-selected-color: initial; --theme-button-primary-background-color: initial; --theme-button-primary-active-background-color: initial; --theme-button-primary-hover-background-color: initial; --theme-button-primary-selected-background-color: initial; --theme-background-color: var(--white); --theme-background-position: top left; --theme-background-repeat: repeat; --theme-background-size: auto; --theme-background-attachment: auto; --theme-content-background-color: var(--white); --theme-content-border-color: var(--black-225); --theme-header-background-color: var(--theme-primary); --theme-header-background-position: center left; --theme-header-background-repeat: repeat; --theme-header-background-size: auto; --theme-header-background-border-bottom: 0; --theme-header-link-color: var(--theme-primary); --theme-header-sponsored-color: hsla(0,0%,100%,0.4); --theme-header-foreground-color: transparent; --theme-header-foreground-position: bottom right; --theme-header-foreground-repeat: no-repeat; --theme-header-foreground-size: auto; --theme-footer-background-color: hsl(210,8%,5%); --theme-footer-background-position: top left; --theme-footer-background-repeat: no-repeat; --theme-footer-background-size: auto; --theme-footer-background-border-top: 0; --theme-footer-title-color: var(--black-250); --theme-footer-text-color: var(--black-300); --theme-footer-link-color: var(--black-300); --theme-footer-link-color-hover: var(--black-200); --theme-footer-divider-color: var(--black-500); --theme-footer-padding-top: 0; --theme-footer-padding-bottom: 0; --theme-link-color: initial; --theme-link-color-hover: initial; --theme-link-color-visited: initial; --theme-tag-color: initial; --theme-tag-background-color: initial; --theme-tag-border-color: initial; --theme-tag-hover-color: initial; --theme-tag-hover-background-color: initial; --theme-tag-hover-border-color: initial; --theme-tag-required-color: var(--white); --theme-tag-required-background-color: var(--theme-secondary-500); --theme-tag-required-border-color: transparent; --theme-tag-required-hover-color: var(--white); --theme-tag-required-hover-background-color: var(--theme-secondary-400); --theme-tag-required-hover-border-color: transparent; --theme-body-font-family: var(--ff-sans); --theme-body-font-color: var(--black-600); --theme-post-title-font-family: var(--ff-sans); --theme-post-title-color: var(--theme-link-color); --theme-post-title-color-hover: var(--theme-link-color-hover); --theme-post-title-color-visited: var(--theme-link-color-visited); --theme-post-body-font-family: var(--ff-sans); --theme-post-owner-background-color: var(--theme-secondary-100); --theme-post-owner-new-background-color: var(--theme-secondary-200); --theme-topbar-bottom-border: 1px solid var(--black-225); color: rgb(12, 13, 14); letter-spacing: normal; orphans: 2; text-align: left; text-indent: 0px; text-transform: none; widows: 2; word-spacing: 0px; -webkit-text-stroke-width: 0px; text-decoration-thickness: initial; text-decoration-style: initial; text-decoration-color: initial;&quot;&gt;&lt;code style=&quot;margin: 0px; padding: 0px; border: 0px; font-style: inherit; font-variant: inherit; font-weight: inherit; font-stretch: inherit; line-height: inherit; font-family: var(--ff-mono); font-optical-sizing: inherit; font-kerning: inherit; font-feature-settings: inherit; font-variation-settings: inherit; font-size: var(--_pr-code-fs); vertical-align: baseline; box-sizing: inherit; background-color: transparent; --theme-base-primary-color-h: 27; --theme-base-primary-color-s: 89%; --theme-base-primary-color-l: 48%; --theme-primary-custom-100: hsl(var(--theme-base-primary-color-h), var(--theme-base-primary-color-s), calc(var(--theme-base-primary-color-l) + ((100% - var(--theme-base-primary-color-l)) * .9))); --theme-primary-custom-200: hsl(var(--theme-base-primary-color-h), var(--theme-base-primary-color-s), calc(var(--theme-base-primary-color-l) + ((100% - var(--theme-base-primary-color-l)) * .75))); --theme-primary-custom-300: hsl(var(--theme-base-primary-color-h), var(--theme-base-primary-color-s), calc(var(--theme-base-primary-color-l) + ((100% - var(--theme-base-primary-color-l)) * .5))); --theme-primary-custom-400: hsl(var(--theme-base-primary-color-h), var(--theme-base-primary-color-s), var(--theme-base-primary-color-l)); --theme-primary-custom-500: hsl(var(--theme-base-primary-color-h), var(--theme-base-primary-color-s), calc(var(--theme-base-primary-color-l) + (var(--theme-base-primary-color-l) * -.3))); --theme-primary-custom-600: hsl(var(--theme-base-primary-color-h), var(--theme-base-primary-color-s), calc(var(--theme-base-primary-color-l) + (var(--theme-base-primary-color-l) * -.6))); --theme-primary-custom: var(--theme-primary-custom-400); --theme-button-color: initial; --theme-button-hover-color: initial; --theme-button-hover-background-color: initial; --theme-button-active-background-color: initial; --theme-button-selected-color: initial; --theme-button-selected-background-color: initial; --theme-button-outlined-border-color: initial; --theme-button-outlined-selected-border-color: initial; --theme-button-primary-color: initial; --theme-button-primary-active-color: initial; --theme-button-primary-hover-color: initial; --theme-button-primary-selected-color: initial; --theme-button-primary-background-color: initial; --theme-button-primary-active-background-color: initial; --theme-button-primary-hover-background-color: initial; --theme-button-primary-selected-background-color: initial; --theme-background-color: var(--white); --theme-background-position: top left; --theme-background-repeat: repeat; --theme-background-size: auto; --theme-background-attachment: auto; --theme-content-background-color: var(--white); --theme-content-border-color: var(--black-225); --theme-header-background-color: var(--theme-primary); --theme-header-background-position: center left; --theme-header-background-repeat: repeat; --theme-header-background-size: auto; --theme-header-background-border-bottom: 0; --theme-header-link-color: var(--theme-primary); --theme-header-sponsored-color: hsla(0,0%,100%,0.4); --theme-header-foreground-color: transparent; --theme-header-foreground-position: bottom right; --theme-header-foreground-repeat: no-repeat; --theme-header-foreground-size: auto; --theme-footer-background-color: hsl(210,8%,5%); --theme-footer-background-position: top left; --theme-footer-background-repeat: no-repeat; --theme-footer-background-size: auto; --theme-footer-background-border-top: 0; --theme-footer-title-color: var(--black-250); --theme-footer-text-color: var(--black-300); --theme-footer-link-color: var(--black-300); --theme-footer-link-color-hover: var(--black-200); --theme-footer-divider-color: var(--black-500); --theme-footer-padding-top: 0; --theme-footer-padding-bottom: 0; --theme-link-color: initial; --theme-link-color-hover: initial; --theme-link-color-visited: initial; --theme-tag-color: initial; --theme-tag-background-color: initial; --theme-tag-border-color: initial; --theme-tag-hover-color: initial; --theme-tag-hover-background-color: initial; --theme-tag-hover-border-color: initial; --theme-tag-required-color: var(--white); --theme-tag-required-background-color: var(--theme-secondary-500); --theme-tag-required-border-color: transparent; --theme-tag-required-hover-color: var(--white); --theme-tag-required-hover-background-color: var(--theme-secondary-400); --theme-tag-required-hover-border-color: transparent; --theme-body-font-family: var(--ff-sans); --theme-body-font-color: var(--black-600); --theme-post-title-font-family: var(--ff-sans); --theme-post-title-color: var(--theme-link-color); --theme-post-title-color-hover: var(--theme-link-color-hover); --theme-post-title-color-visited: var(--theme-link-color-visited); --theme-post-body-font-family: var(--ff-sans); --theme-post-owner-background-color: var(--theme-secondary-100); --theme-post-owner-new-background-color: var(--theme-secondary-200); --theme-topbar-bottom-border: 1px solid var(--black-225); color: var(--black-600); border-radius: 0px;&quot;&gt;git rev-list --count &amp;lt;revision&amp;gt;&#10;&lt;/code&gt;&lt;/pre&gt;&lt;br class=&quot;Apple-interchange-newline&quot;&gt;" style="text;whiteSpace=wrap;html=1;" vertex="1" parent="1">
                    <mxGeometry x="-70" y="1670" width="180" height="70" as="geometry"/>
                </mxCell>
                <mxCell id="311" value="Favorites table with foreignKey userId return all record&amp;nbsp;" style="ellipse;whiteSpace=wrap;html=1;" vertex="1" parent="1">
                    <mxGeometry x="-200" y="1630" width="205" height="110" as="geometry"/>
                </mxCell>
                <mxCell id="313" style="edgeStyle=none;html=1;entryX=0.5;entryY=0;entryDx=0;entryDy=0;" edge="1" parent="1" source="312" target="311">
                    <mxGeometry relative="1" as="geometry"/>
                </mxCell>
                <mxCell id="312" value="Associate User and Favorites table on ID" style="ellipse;whiteSpace=wrap;html=1;" vertex="1" parent="1">
                    <mxGeometry x="10" y="1570" width="205" height="110" as="geometry"/>
                </mxCell>
                <mxCell id="315" value="Input Add Favorite" style="whiteSpace=wrap;html=1;rounded=0;" vertex="1" parent="1">
                    <mxGeometry x="-470" y="1560" width="120" height="60" as="geometry"/>
                </mxCell>
                <mxCell id="316" value="Call a method, takes in Movie name, Rating, and assoicate Username" style="ellipse;whiteSpace=wrap;html=1;" vertex="1" parent="1">
                    <mxGeometry x="-600" y="1630" width="205" height="110" as="geometry"/>
                </mxCell>
                <mxCell id="320" style="edgeStyle=none;html=1;entryX=0.5;entryY=0;entryDx=0;entryDy=0;" edge="1" parent="1" source="318" target="306">
                    <mxGeometry relative="1" as="geometry"/>
                </mxCell>
                <mxCell id="321" style="edgeStyle=none;html=1;" edge="1" parent="1" source="318" target="322">
                    <mxGeometry relative="1" as="geometry">
                        <mxPoint x="-680" y="1350" as="targetPoint"/>
                    </mxGeometry>
                </mxCell>
                <mxCell id="318" value="Do you have a username?" style="rounded=0;whiteSpace=wrap;html=1;" vertex="1" parent="1">
                    <mxGeometry x="-570" y="1110" width="120" height="60" as="geometry"/>
                </mxCell>
                <mxCell id="325" style="edgeStyle=none;html=1;entryX=0.5;entryY=1;entryDx=0;entryDy=0;" edge="1" parent="1" source="322" target="318">
                    <mxGeometry relative="1" as="geometry"/>
                </mxCell>
                <mxCell id="322" value="Create User&amp;nbsp;" style="rounded=0;whiteSpace=wrap;html=1;" vertex="1" parent="1">
                    <mxGeometry x="-740" y="1320" width="120" height="60" as="geometry"/>
                </mxCell>
            </root>
        </mxGraphModel>
    </diagram>
</mxfile>